<!-- Generator: Adobe Illustrator 27.5.0, SVG Export Plug-In . SVG Version: 6.00 Build 0)  -->
<svg version="1.1" xmlns="http://www.w3.org/2000/svg" xmlns:xlink="http://www.w3.org/1999/xlink" x="0px" y="0px"
	 viewBox="0 0 3710 3710" style="enable-background:new 0 0 3710 3710;" xml:space="preserve">
<g id="Background">
	<g>
		<g>
			<rect style="fill:#FFFFFF;" width="3710" height="3710"/>
		</g>
	</g>
</g>
<g id="Illustration">
	<g>
		<path style="fill:#F4F7FA;" d="M1171.97,609.43c-96.199,137.715,16.597,360.985-126.147,464.558
			c-138.95,100.821-309.646-64.438-440.597,22.348c-194.259,128.741-158.784,717.839,125.233,1083.858
			c85.413,110.073,156.782,152.902,188.39,277.391c67.873,267.309-170.666,426.321-125.272,558.528
			c102.211,297.681,1674.129,547.47,2304.854-347.159c294.573-417.829,338.648-1021.177,75.456-1479.424
			C2698.302,361.484,1387.825,300.423,1171.97,609.43z"/>
		<g>
			<g>
				<g>
					<defs>
						<path id="SVGID_1_" d="M1566.123,3119.455c26.25,9.148,91.421,5.911,108.062-1.938
							c110.742-52.23,324.434-136.551,375.443-255.513c8.712-20.318-70.322-82.767-73.619-107.065
							c-40.725-52.046-58.081-67.576-72.49-136.075c-42.54-202.226,355.561-342.804,98.343-590.922
							c-188.409-181.742-415.616-199.187-218.056-533.993c197.56-334.805,238.741-1104.414-248.533-1045.715
							c-279.65,33.688-213.849,435.376-430.839,598.814c-206.196,155.309-203.711,369.345-46.171,603.286
							c157.54,233.941-7.495,270.621-169.61,435.142c-194.736,197.625,147.357,421.063,314.092,510.747
							C1337.012,2668.442,1630.181,2942.924,1566.123,3119.455z"/>
					</defs>
					
						<linearGradient id="SVGID_00000150808697444035514660000011945767600116109733_" gradientUnits="userSpaceOnUse" x1="1225.2087" y1="574.7576" x2="2008.8748" y2="5584.6362">
						<stop  offset="0" style="stop-color:#FF9085"/>
						<stop  offset="1" style="stop-color:#FB6FBB"/>
					</linearGradient>
					
						<use xlink:href="#SVGID_1_"  style="overflow:visible;fill:url(#SVGID_00000150808697444035514660000011945767600116109733_);"/>
					<clipPath id="SVGID_00000101088262594637429010000011819149843550280852_">
						<use xlink:href="#SVGID_1_"  style="overflow:visible;"/>
					</clipPath>
					<g style="clip-path:url(#SVGID_00000101088262594637429010000011819149843550280852_);">
						<g>
							<path style="fill:#FCFDFE;" d="M1853.842,2998.174l4.692-3.594c-553.504-722.942-618.105-1695.939-172.808-2602.762
								l-5.307-2.609c-211.038,429.771-310.826,892.146-288.575,1337.137C1415.233,2194.173,1574.991,2633.962,1853.842,2998.174z"
								/>
							<path style="fill:#FCFDFE;" d="M798.289,2158.331c246.356,36.447,601.255,211.644,791.126,390.548l4.052-4.303
								c-190.619-179.606-546.945-355.495-794.311-392.094L798.289,2158.331z"/>
							<path style="fill:#FCFDFE;" d="M1746.812,2855.014l5.506-2.155c-49.367-126.299-32.986-272.703,48.685-435.143
								c59.885-119.11,152.827-243.907,276.253-370.934l-4.242-4.118c-123.842,127.457-217.139,252.749-277.292,372.394
								C1713.262,2579.061,1696.807,2727.083,1746.812,2855.014z"/>
							<path style="fill:#FCFDFE;" d="M1391.14,1663.063l5.61-1.866c-80.809-242.852-295.913-404.621-462.134-497.567l-2.886,5.164
								C1097.039,1261.227,1310.931,1422.01,1391.14,1663.063z"/>
							<path style="fill:#FCFDFE;" d="M1441.88,1079.372l5.465,2.256c110.032-266.514,371.406-419.109,517.412-486.348l-2.472-5.372
								C1815.49,657.512,1552.683,810.992,1441.88,1079.372z"/>
						</g>
					</g>
				</g>
			</g>
		</g>
		<g>
			<g>
				<g>
					<defs>
						<path id="SVGID_00000156558811967909821830000015404989714945317516_" d="M1561.019,3134.384
							c24.415-0.433,77.148-22.896,88.479-34.419c75.413-76.686,225.934-211.09,231.845-324.635
							c1.01-19.392-83.1-46.86-93.198-65.886c-49.375-30.529-68.397-38.057-101.079-90.14
							c-96.485-153.76,188.945-390.544-98.423-516.926c-210.493-92.572-403.063-37.941-341.918-373.904
							c61.145-335.962-138.665-982.806-522.463-786.425c-220.264,112.704-44.024,423.803-173.234,624.42
							c-122.782,190.638-55.724,366.299,145.18,511.271c200.904,144.971,76.018,225.33-7.633,410.173
							c-100.483,222.036,249.346,302.297,414.014,325.574C1235.193,2832.232,1560.2,2969.425,1561.019,3134.384z"/>
					</defs>
					
						<linearGradient id="SVGID_00000155848160893576659740000000406303240035695246_" gradientUnits="userSpaceOnUse" x1="978.389" y1="952.4249" x2="1659.8124" y2="5308.6787">
						<stop  offset="0" style="stop-color:#FCB148"/>
						<stop  offset="0.0521" style="stop-color:#FDBA46"/>
						<stop  offset="0.1424" style="stop-color:#FFC244"/>
						<stop  offset="0.3183" style="stop-color:#FFC444"/>
						<stop  offset="0.4849" style="stop-color:#FDB946"/>
						<stop  offset="0.7754" style="stop-color:#F99C4D"/>
						<stop  offset="0.8658" style="stop-color:#F8924F"/>
						<stop  offset="1" style="stop-color:#F8924F"/>
					</linearGradient>
					
						<use xlink:href="#SVGID_00000156558811967909821830000015404989714945317516_"  style="overflow:visible;fill:url(#SVGID_00000155848160893576659740000000406303240035695246_);"/>
					<clipPath id="SVGID_00000098926347192080795820000015999830562011776678_">
						<use xlink:href="#SVGID_00000156558811967909821830000015404989714945317516_"  style="overflow:visible;"/>
					</clipPath>
					<g style="clip-path:url(#SVGID_00000098926347192080795820000015999830562011776678_);">
						<g>
							<path style="fill:#FCFDFE;" d="M1761.33,2947.031l2.776-4.387c-675.794-427.756-1024.568-1210.109-932.97-2092.792
								l-5.167-0.538c-43.409,418.329,14.779,829.742,168.276,1189.76C1155.616,2417.567,1420.87,2731.532,1761.33,2947.031z"/>
							<path style="fill:#FCFDFE;" d="M636.224,2575.409c214.124-44.785,559.856-8.175,770.692,81.614l2.033-4.778
								c-211.666-90.14-558.783-126.887-773.787-81.919L636.224,2575.409z"/>
							<path style="fill:#FCFDFE;" d="M1629.63,2861.542l3.883-3.448c-79.05-89.105-110.016-214.752-92.038-373.446
								c13.181-116.363,51.883-247.454,115.033-389.642l-4.748-2.106c-63.362,142.669-102.206,274.275-115.446,391.16
								C1518.163,2644.283,1549.558,2771.286,1629.63,2861.542z"/>
							<path style="fill:#FCFDFE;" d="M974.443,1987.127l4.057-3.242c-140.367-175.622-366.796-243.624-532.031-269.747
								l-0.811,5.132C609.987,1745.249,835.118,1812.806,974.443,1987.127z"/>
							<path style="fill:#FCFDFE;" d="M838.98,1490.62l5.19,0.199c9.744-253.089,178.829-458.249,278.749-558.017l-3.669-3.677
								C1018.791,1029.432,848.793,1235.758,838.98,1490.62z"/>
						</g>
					</g>
				</g>
			</g>
		</g>
		<g>
			<path style="fill:#97A6B7;" d="M2445.951,1286.723c14.541-24.381,642.438-508.974,642.438-508.974l140.588,125.758
				c41.003,36.678,60.554,91.566,53.26,149.518l-57.39,455.916l-296.421,1502.829c-12.882,65.312-58.24,123.853-120.494,155.514
				l-178.995,91.034L2445.951,1286.723z"/>
			
				<linearGradient id="SVGID_00000056401898608457715240000004141581056795424133_" gradientUnits="userSpaceOnUse" x1="1488.9514" y1="3144.377" x2="2955.7605" y2="123.1873">
				<stop  offset="0" style="stop-color:#D8DEE8"/>
				<stop  offset="1" style="stop-color:#FFFFFF"/>
			</linearGradient>
			<path style="fill:url(#SVGID_00000056401898608457715240000004141581056795424133_);" d="M2994.557,753.988l-1539,97.648
				c-77.574,4.922-148.437,76.791-158.983,160.568l-62.423,495.9c-0.529,4.2-0.899,8.395-1.109,12.574l-74.985,1490.654
				c-4.01,79.717,48.415,145.969,121.196,152.379l1261.27,111.088c86.234,7.595,167.229-53.265,185.5-140.117l347.348-1651.156
				c0.989-4.703,1.781-9.415,2.375-14.126l70.017-556.221C3157.591,819.211,3089.46,747.966,2994.557,753.988z"/>
			<path style="fill:#D8DEE8;" d="M1284.066,3125.47c-54.386-4.651-94.375-54.989-91.389-114.595l74.899-1494.013
				c0.157-3.138,0.438-6.325,0.835-9.477l62.565-497.022c7.936-63.048,61.499-117.214,119.802-120.771l1538.523-93.845
				c71.137-4.339,122.247,49.361,113.387,119.74l-69.839,554.816c-0.443,3.519-1.042,7.083-1.78,10.592l-346.135,1647.059
				c-13.586,64.649-74.922,110.926-139.198,105.428L1284.066,3125.47z"/>
			<path style="fill:#FFFFFF;" d="M2731.569,1015.815l-1108.322,53.991c-89.205,4.346-170.492,85.044-182.481,180.289
				l-33.537,266.424c-0.601,4.775-1.02,9.544-1.254,14.295l-66.457,1344.27c-4.474,90.507,55.941,165.249,139.764,171.9
				l869.165,68.963c94.622,7.508,183.693-60.868,203.903-157.426l304.691-1455.714c1.093-5.218,1.969-10.448,2.626-15.676
				l36.718-291.69C2909.513,1091.163,2835.195,1010.767,2731.569,1015.815z"/>
			<g>
				<path style="fill:#D8DEE8;" d="M2787.6,968.782c-409.637-69.992-810.362-47.167-1202.817,61.787
					c-73.433,20.387-126.805,99.612-117.738,174.507l51.061,421.759c7.312,60.402,52.982,102.251,111.657,101.883l911.318-5.724
					c66.276-0.416,130.41-46.084,155.88-111.403l180.749-463.52C2910.347,1064.376,2868.946,982.681,2787.6,968.782z"/>
				<path style="fill:#FFFFFF;" d="M1639.497,1651.388c-26.148,0.294-46.659-18.33-49.952-45.272l-51.772-423.493
					c-1.976-16.159,2.432-33.197,12.419-47.992c10.056-14.897,24.381-25.504,40.355-29.862
					c187.931-51.281,380.257-82.574,571.699-92.27c196.115-9.933,397.144,2.512,597.585,37.827
					c17.49,3.081,31.333,13.174,38.958,28.429c7.59,15.185,7.948,33.4,1.003,51.268l-179.319,461.442
					c-11.237,28.92-39.679,49.331-69.087,49.662L1639.497,1651.388z"/>
				<g>
					
						<linearGradient id="SVGID_00000146465263798705067060000002864355513546551940_" gradientUnits="userSpaceOnUse" x1="2550.5205" y1="1083.7452" x2="2038.1732" y2="2533.5759" gradientTransform="matrix(1 0 -0.1238 0.9835 -169.9759 -22.8047)">
						<stop  offset="0" style="stop-color:#FF9085"/>
						<stop  offset="1" style="stop-color:#FB6FBB"/>
					</linearGradient>
					<path style="fill:url(#SVGID_00000146465263798705067060000002864355513546551940_);" d="M2113.458,1400.107
						c101.446-2.699,190.33,34.453,254.33,98.231l252.281-266.189c-118.71-112.509-281.178-175.535-464.465-166.851
						c-179.2,8.491-348.288,84.236-482.934,200.913l169.011,242.73C1917.909,1443.886,2013.279,1402.772,2113.458,1400.107z"/>
				</g>
				
					<linearGradient id="SVGID_00000097472222691392417930000005690822824204655024_" gradientUnits="userSpaceOnUse" x1="2210.3455" y1="2651.4221" x2="2590.344" y2="985.8903" gradientTransform="matrix(1 0 -0.1238 0.9835 -169.9759 -22.8047)">
					<stop  offset="0" style="stop-color:#444B8C"/>
					<stop  offset="0.9964" style="stop-color:#26264F"/>
				</linearGradient>
				<path style="fill:url(#SVGID_00000097472222691392417930000005690822824204655024_);" d="M2125.779,1645.917l-86.423,0.972
					l96.819-463.77c1.227-5.879,9.483-6.213,9.236-0.37L2125.779,1645.917z"/>
			</g>
		</g>
		<g>
			
				<linearGradient id="SVGID_00000005232156465474286650000006534779315634195857_" gradientUnits="userSpaceOnUse" x1="-487.7643" y1="3189.7454" x2="-488.3677" y2="3277.8452" gradientTransform="matrix(-1 0 0 1 1904.3329 0)">
				<stop  offset="0" style="stop-color:#444B8C"/>
				<stop  offset="0.9964" style="stop-color:#26264F"/>
			</linearGradient>
			<path style="fill:url(#SVGID_00000005232156465474286650000006534779315634195857_);" d="M2418.331,3239.642
				c0,0,8.725,19.911,0,29.788c-8.724,9.877-40.984,15.864-52.171,15.156c-11.187-0.708,10.777-20.255,23.337-30.189
				C2402.058,3244.462,2408.551,3236.182,2418.331,3239.642z"/>
			
				<linearGradient id="SVGID_00000109725623965756560380000018400500683960504716_" gradientUnits="userSpaceOnUse" x1="-379.3737" y1="3190.4875" x2="-379.9771" y2="3278.5874" gradientTransform="matrix(-1 0 0 1 1904.3329 0)">
				<stop  offset="0" style="stop-color:#444B8C"/>
				<stop  offset="0.9964" style="stop-color:#26264F"/>
			</linearGradient>
			<path style="fill:url(#SVGID_00000109725623965756560380000018400500683960504716_);" d="M2294.46,3247.929
				c0,0,11.61,28.509,4.645,32.76c-6.965,4.25-29.429,4.001-31.472-2.311c-2.043-6.312,4.348-27.231,7.991-30.449
				C2279.267,3244.71,2294.46,3247.929,2294.46,3247.929z"/>
			
				<linearGradient id="SVGID_00000071549319664273564520000001468473990737263744_" gradientUnits="userSpaceOnUse" x1="-501.4316" y1="3149.5208" x2="-511.0865" y2="3235.8105" gradientTransform="matrix(-1 0 0 1 1904.3329 0)">
				<stop  offset="0" style="stop-color:#AB316D"/>
				<stop  offset="1" style="stop-color:#792D3D"/>
			</linearGradient>
			<path style="fill:url(#SVGID_00000071549319664273564520000001468473990737263744_);" d="M2422.209,3221.954l-3.856,21.138
				c-0.24,1.313-1.134,2.418-2.387,2.876c-1.374,0.501-3.322,0.858-5.487,0.176c-1.482-0.468-2.515-1.831-2.616-3.382l-1.272-19.573
				L2422.209,3221.954z"/>
			
				<linearGradient id="SVGID_00000040571806358572512290000011306684403508371842_" gradientUnits="userSpaceOnUse" x1="-373.9951" y1="3163.7798" x2="-383.6499" y2="3250.0693" gradientTransform="matrix(-1 0 0 1 1904.3329 0)">
				<stop  offset="0" style="stop-color:#AB316D"/>
				<stop  offset="1" style="stop-color:#792D3D"/>
			</linearGradient>
			<path style="fill:url(#SVGID_00000040571806358572512290000011306684403508371842_);" d="M2294.46,3224.758l-1.888,23.16
				c-0.208,2.557-2.124,4.685-4.663,5.052c-1.507,0.218-3.423,0.112-5.786-0.69c-2.084-0.707-3.55-2.612-3.737-4.805l-1.934-22.717
				H2294.46z"/>
			
				<linearGradient id="SVGID_00000023281544858724581490000015090316596609804192_" gradientUnits="userSpaceOnUse" x1="-546.7485" y1="3190.6704" x2="-539.5076" y2="2974.2419" gradientTransform="matrix(-1 0 0 1 1904.3329 0)">
				<stop  offset="0" style="stop-color:#444B8C"/>
				<stop  offset="0.9964" style="stop-color:#26264F"/>
			</linearGradient>
			<path style="fill:url(#SVGID_00000023281544858724581490000015090316596609804192_);" d="M2542.762,2874.61
				c15.123,23.495-56.923,56.722-78.072,161.095c-7.588,37.447-5.384,68.063-22.097,147.858
				c-4.186,19.99-8.147,36.316-10.862,47.067c-10.46,0-20.918,0-31.378,0c-6.393-28.93-16.11-71.585-28.965-123.099
				c-28.745-115.195-38.04-133.887-27.757-160.51C2373.452,2869.814,2522.59,2843.272,2542.762,2874.61z"/>
			
				<linearGradient id="SVGID_00000125563941579494979190000006888247170199066043_" gradientUnits="userSpaceOnUse" x1="-333.4763" y1="3197.8059" x2="-326.2354" y2="2981.3777" gradientTransform="matrix(-1 0 0 1 1904.3329 0)">
				<stop  offset="0" style="stop-color:#444B8C"/>
				<stop  offset="0.9964" style="stop-color:#26264F"/>
			</linearGradient>
			<path style="fill:url(#SVGID_00000125563941579494979190000006888247170199066043_);" d="M2327.943,2936.16
				c15.478,37.462-15.132,65.258-27.757,148.442c-9.385,61.827-2.881,115.017,4.827,152.063
				c-10.686-0.904-21.371-1.808-32.057-2.712c-14.394-33.731-38.067-88.104-69.248-154.516
				c-65.917-140.398-89.221-172.378-73.688-193.964C2158.832,2845.431,2300.573,2869.916,2327.943,2936.16z"/>
			
				<linearGradient id="SVGID_00000167375376018792084360000015815187197285209994_" gradientUnits="userSpaceOnUse" x1="-445.1675" y1="3194.0688" x2="-437.9266" y2="2977.6409" gradientTransform="matrix(-1 0 0 1 1904.3329 0)">
				<stop  offset="0" style="stop-color:#444B8C"/>
				<stop  offset="0.9964" style="stop-color:#26264F"/>
			</linearGradient>
			<path style="fill:url(#SVGID_00000167375376018792084360000015815187197285209994_);" d="M2617.587,2782.89
				c14.712,70.695-132.346,189.145-282.57,193.237c-14.084,0.384-173.002,2.273-246.611-115.226
				c-13.523-21.586-50.11-79.99-29.59-122.665C2115.866,2619.596,2593.305,2666.21,2617.587,2782.89z"/>
			
				<linearGradient id="SVGID_00000017491556189572319000000014062924861625528454_" gradientUnits="userSpaceOnUse" x1="-399.3553" y1="2445.292" x2="-448.7988" y2="2770.8958" gradientTransform="matrix(-1 0 0 1 1904.3329 0)">
				<stop  offset="0" style="stop-color:#AA80F9"/>
				<stop  offset="0.9964" style="stop-color:#6165D7"/>
			</linearGradient>
			<path style="fill:url(#SVGID_00000017491556189572319000000014062924861625528454_);" d="M2338.805,2260.325
				c135.5,1.648,225.439,99.813,245.795,122.031c45.174,49.307,65.409,98.792,74.874,122.55
				c33.904,85.104,28.979,154.658,23.311,249.351c-5.536,92.48-19.778,106.202-28.993,111.905
				c-33.854,20.956-71.746-21.796-150.432-42.027c-82.62-21.242-101.359,10.331-278,21.51
				c-175.945,11.135-204.747-17.191-214.819-30.171c-11.872-15.299-18.101-35.537-10.861-126.719
				c9.341-117.653,14.012-176.479,32.996-219.239C2077.117,2369.418,2193.072,2258.553,2338.805,2260.325z"/>
			<g>
				
					<linearGradient id="SVGID_00000013909334251056650720000002653912117670584207_" gradientUnits="userSpaceOnUse" x1="-287.9656" y1="2263.1819" x2="-550.2534" y2="2116.7515" gradientTransform="matrix(-1 0 0 1 1904.3329 0)">
					<stop  offset="0" style="stop-color:#AB316D"/>
					<stop  offset="1" style="stop-color:#792D3D"/>
				</linearGradient>
				<path style="fill:url(#SVGID_00000013909334251056650720000002653912117670584207_);" d="M2272.207,2128.351
					c-13.15,15.929-17.635,17.361-24.34,28.741c-0.597,1.015-13.309,23.12-12.554,47.836c1.121,36.75,32.016,79.523,78.299,86.67
					c47.794,7.38,86.186-27.217,101.729-60.622c1.122-2.413,21.585-48.386-2.901-93.391c-24.833-45.641-84.164-68.73-109.452-52.883
					C2292.326,2091.384,2295.542,2100.084,2272.207,2128.351z"/>
				
					<linearGradient id="SVGID_00000072997980484038908060000007834514495131788215_" gradientUnits="userSpaceOnUse" x1="-469.6049" y1="1875.5948" x2="-465.9845" y2="2172.4646" gradientTransform="matrix(-1 0 0 1 1904.3329 0)">
					<stop  offset="0" style="stop-color:#444B8C"/>
					<stop  offset="0.9964" style="stop-color:#26264F"/>
				</linearGradient>
				<path style="fill:url(#SVGID_00000072997980484038908060000007834514495131788215_);" d="M2410.709,2258.777
					c12.173-1.361,33.342-7.9,39.036-23.683c5.599-15.515-9.163-24.973-5.385-45.953c2.936-16.301,13.463-19.548,18.75-31.399
					c19.93-44.667-67.482-137.805-95.602-125.426c-7.148,3.147-7.069,11.617-17.842,15.603c-15.362,5.683-25.342-7.908-37.287-2.173
					c-8.688,4.171-5.924,12.566-18.22,32.034c-10.763,17.039-19.962,21.816-18.11,25.654c3.158,6.549,29.218-8.83,57.06-4.222
					c39.451,6.528,77.168,52.302,70.333,84.603c-6.163,29.127-46.05,35.475-42.914,53.58
					C2362.974,2251.509,2389.552,2261.142,2410.709,2258.777z"/>
				
					<linearGradient id="SVGID_00000062901648191200238450000012999499303220977808_" gradientUnits="userSpaceOnUse" x1="-334.5422" y1="2346.6118" x2="-596.8314" y2="2200.1809" gradientTransform="matrix(-1 0 0 1 1904.3329 0)">
					<stop  offset="0" style="stop-color:#AB316D"/>
					<stop  offset="1" style="stop-color:#792D3D"/>
				</linearGradient>
				<path style="fill:url(#SVGID_00000062901648191200238450000012999499303220977808_);" d="M2398.159,2236.845
					c15.044-7.693,33.089,3.119,34.251,11.74c1.756,13.026-33.4,33.159-43.375,25.304
					C2382.098,2268.426,2381.912,2245.152,2398.159,2236.845z"/>
			</g>
			<g>
				
					<linearGradient id="SVGID_00000016058226485870827700000018074279363753414563_" gradientUnits="userSpaceOnUse" x1="-333.852" y1="2364.5269" x2="-377.4706" y2="2481.6086" gradientTransform="matrix(-1 0 0 1 1904.3329 0)">
					<stop  offset="0" style="stop-color:#FFC444"/>
					<stop  offset="0.9964" style="stop-color:#F36F56"/>
				</linearGradient>
				<path style="fill:url(#SVGID_00000016058226485870827700000018074279363753414563_);" d="M2323.158,2425.246
					c14.875-4.803,20.473-8.763,22.771-14.469c6.6-16.39-15.743-42.892-38.114-55.819c-20.594-11.901-40.136-11.677-67.56-11.362
					c-26.579,0.304-45.633,0.523-62.646,13.839c-12.78,10.004-26.959,29.395-21.428,43.876c3.135,8.207,11.721,12.54,31.723,18.403
					C2266.109,2442.635,2312.871,2428.567,2323.158,2425.246z"/>
				
					<linearGradient id="SVGID_00000134930533358513245820000008794816422044254607_" gradientUnits="userSpaceOnUse" x1="-342.4304" y1="2456.1384" x2="-348.5523" y2="2392.6235" gradientTransform="matrix(-1 0 0 1 1904.3329 0)">
					<stop  offset="0" style="stop-color:#FFC444"/>
					<stop  offset="0.9964" style="stop-color:#F36F56"/>
				</linearGradient>
				<path style="fill:url(#SVGID_00000134930533358513245820000008794816422044254607_);" d="M2291.013,2392.455
					c38.855,3.869,47.563,15.92,46.779,26.791c-3.451,1.983-8.164,3.912-14.634,6.001c-10.288,3.321-57.049,17.39-135.254-5.533
					c-9.508-2.787-16.432-5.228-21.422-7.904C2151.897,2369.66,2224.548,2385.837,2291.013,2392.455z"/>
				
					<linearGradient id="SVGID_00000181765703726704593270000016188840160788233371_" gradientUnits="userSpaceOnUse" x1="-394.9236" y1="2449.4263" x2="-393.393" y2="2344.5876" gradientTransform="matrix(-1 0 0 1 1904.3329 0)">
					<stop  offset="0" style="stop-color:#FFC444"/>
					<stop  offset="0.9964" style="stop-color:#F36F56"/>
				</linearGradient>
				<path style="fill:url(#SVGID_00000181765703726704593270000016188840160788233371_);" d="M2296.313,2354.713
					c3.913,1.099,9.341,3.963,8.901,6c-0.405,1.875-5.831,3.281-9.751,1.313c-3.469-1.742-5.641-6.067-4.592-7.483
					C2291.704,2353.419,2294.512,2354.208,2296.313,2354.713z"/>
				
					<linearGradient id="SVGID_00000176758622515462700200000003071448835162326960_" gradientUnits="userSpaceOnUse" x1="-376.4734" y1="2449.6978" x2="-374.9429" y2="2344.8572" gradientTransform="matrix(-1 0 0 1 1904.3329 0)">
					<stop  offset="0" style="stop-color:#FFC444"/>
					<stop  offset="0.9964" style="stop-color:#F36F56"/>
				</linearGradient>
				<path style="fill:url(#SVGID_00000176758622515462700200000003071448835162326960_);" d="M2278.286,2349.441
					c2.998,0.429,6.961,2.357,6.802,4.422c-0.132,1.709-3.075,3.334-5.612,3.061c-3.843-0.413-6.55-5.159-5.612-6.803
					C2274.557,2348.908,2277.287,2349.298,2278.286,2349.441z"/>
				
					<linearGradient id="SVGID_00000015344400839621242410000018275595417891333768_" gradientUnits="userSpaceOnUse" x1="-354.269" y1="2450.0183" x2="-352.7384" y2="2345.1812" gradientTransform="matrix(-1 0 0 1 1904.3329 0)">
					<stop  offset="0" style="stop-color:#FFC444"/>
					<stop  offset="0.9964" style="stop-color:#F36F56"/>
				</linearGradient>
				<path style="fill:url(#SVGID_00000015344400839621242410000018275595417891333768_);" d="M2258.219,2345.87
					c1.764,0.152,7.845,0.676,7.993,2.211c0.136,1.41-4.728,3.749-9.491,3.425c-4.553-0.31-8.994-3.052-8.705-4.445
					C2248.353,2345.428,2255.187,2345.609,2258.219,2345.87z"/>
				
					<linearGradient id="SVGID_00000155862361439690913550000003498125443128868775_" gradientUnits="userSpaceOnUse" x1="-338.9357" y1="2450.24" x2="-337.4053" y2="2345.4053" gradientTransform="matrix(-1 0 0 1 1904.3329 0)">
					<stop  offset="0" style="stop-color:#FFC444"/>
					<stop  offset="0.9964" style="stop-color:#F36F56"/>
				</linearGradient>
				<path style="fill:url(#SVGID_00000155862361439690913550000003498125443128868775_);" d="M2241.382,2347.571
					c2.049-0.231,3.585,2.093,3.231,2.891c-0.493,1.111-5.281,0.684-5.646-0.654
					C2238.754,2349.028,2239.985,2347.728,2241.382,2347.571z"/>
				
					<linearGradient id="SVGID_00000018955675217382128100000004194293393512664497_" gradientUnits="userSpaceOnUse" x1="-323.3978" y1="2450.4712" x2="-321.8672" y2="2345.6321" gradientTransform="matrix(-1 0 0 1 1904.3329 0)">
					<stop  offset="0" style="stop-color:#FFC444"/>
					<stop  offset="0.9964" style="stop-color:#F36F56"/>
				</linearGradient>
				<path style="fill:url(#SVGID_00000018955675217382128100000004194293393512664497_);" d="M2223.016,2346.55
					c3.896-2.701,9.456-0.181,9.693,1.701c0.347,2.756-10.28,7.674-12.415,5.442
					C2219.074,2352.417,2220.285,2348.444,2223.016,2346.55z"/>
				
					<linearGradient id="SVGID_00000063611969912904849080000010177792214870318989_" gradientUnits="userSpaceOnUse" x1="-307.6447" y1="2450.6973" x2="-306.1143" y2="2345.8621" gradientTransform="matrix(-1 0 0 1 1904.3329 0)">
					<stop  offset="0" style="stop-color:#FFC444"/>
					<stop  offset="0.9964" style="stop-color:#F36F56"/>
				</linearGradient>
				<path style="fill:url(#SVGID_00000063611969912904849080000010177792214870318989_);" d="M2211.111,2348.421
					c1.143,0.127,2.24,1.588,2.041,2.721c-0.337,1.923-4.365,2.683-5.102,1.7C2207.313,2351.86,2209.171,2348.206,2211.111,2348.421
					z"/>
				
					<linearGradient id="SVGID_00000011027904504804241260000004387599605265443494_" gradientUnits="userSpaceOnUse" x1="-297.8837" y1="2450.8408" x2="-296.3532" y2="2346.0044" gradientTransform="matrix(-1 0 0 1 1904.3329 0)">
					<stop  offset="0" style="stop-color:#FFC444"/>
					<stop  offset="0.9964" style="stop-color:#F36F56"/>
				</linearGradient>
				<path style="fill:url(#SVGID_00000011027904504804241260000004387599605265443494_);" d="M2199.717,2348.421
					c1.927-0.819,4.031,0.561,4.082,1.53c0.079,1.51-4.734,3.624-5.782,2.551
					C2197.335,2351.805,2197.749,2349.257,2199.717,2348.421z"/>
				
					<linearGradient id="SVGID_00000116931503145503470180000016624962120058399891_" gradientUnits="userSpaceOnUse" x1="-408.9875" y1="2449.2178" x2="-407.457" y2="2344.3835" gradientTransform="matrix(-1 0 0 1 1904.3329 0)">
					<stop  offset="0" style="stop-color:#FFC444"/>
					<stop  offset="0.9964" style="stop-color:#F36F56"/>
				</linearGradient>
				<path style="fill:url(#SVGID_00000116931503145503470180000016624962120058399891_);" d="M2314.339,2361.346
					c0.184-1.2-2.991-3.162-4.082-2.381c-0.729,0.522-0.829,2.486,0.34,3.401C2311.997,2363.461,2314.198,2362.26,2314.339,2361.346
					z"/>
				
					<linearGradient id="SVGID_00000183942313703242492740000009511157606399318175_" gradientUnits="userSpaceOnUse" x1="-362.5483" y1="2449.896" x2="-361.0178" y2="2345.0608" gradientTransform="matrix(-1 0 0 1 1904.3329 0)">
					<stop  offset="0" style="stop-color:#FFC444"/>
					<stop  offset="0.9964" style="stop-color:#F36F56"/>
				</linearGradient>
				<path style="fill:url(#SVGID_00000183942313703242492740000009511157606399318175_);" d="M2266.892,2356.074
					c1.171,0.434,1.899,2.513,1.191,3.741c-1.033,1.792-4.794,1.205-5.272,0C2262.298,2358.524,2265.118,2355.417,2266.892,2356.074
					z"/>
				
					<linearGradient id="SVGID_00000085966847149042375360000011097790058196148101_" gradientUnits="userSpaceOnUse" x1="-350.8193" y1="2379.0649" x2="-344.6974" y2="2428.0403" gradientTransform="matrix(-1 0 0 1 1904.3329 0)">
					<stop  offset="0" style="stop-color:#AB316D"/>
					<stop  offset="1" style="stop-color:#792D3D"/>
				</linearGradient>
				<path style="fill:url(#SVGID_00000085966847149042375360000011097790058196148101_);" d="M2318.081,2436.513
					c5.686-1.145,14.357-3.133,15.628-8.252c1.915-7.713-13.769-19.34-27.592-25.266c-13.883-5.952-18.904-3.157-54.22-7.537
					c-10.701-1.327-17.154-2.441-34.34-4.373c-16.691-1.875-27.965-2.776-39.438,2.912c-3.64,1.804-10.166,5.145-10.911,10.677
					c-0.884,6.567,6.869,12.554,10.571,15.342C2207.774,2442.609,2271.842,2445.818,2318.081,2436.513z"/>
				
					<linearGradient id="SVGID_00000089534346848378838200000017800681347529927825_" gradientUnits="userSpaceOnUse" x1="-347.6276" y1="2393.644" x2="-343.0162" y2="2430.5354" gradientTransform="matrix(-1 0 0 1 1904.3329 0)">
					<stop  offset="0" style="stop-color:#AB316D"/>
					<stop  offset="1" style="stop-color:#792D3D"/>
				</linearGradient>
				<path style="opacity:0.3;fill:url(#SVGID_00000089534346848378838200000017800681347529927825_);" d="M2314.277,2436.464
					c5.542-0.812,13.995-2.222,15.234-5.853c1.866-5.471-13.421-13.719-26.896-17.922c-13.534-4.221-18.427-2.239-52.854-5.346
					c-10.431-0.941-16.722-1.732-33.474-3.101c-16.27-1.33-27.26-1.969-38.444,2.065c-3.549,1.28-9.91,3.649-10.636,7.573
					c-0.862,4.658,6.696,8.904,10.305,10.882C2206.75,2440.788,2269.203,2443.063,2314.277,2436.464z"/>
				
					<linearGradient id="SVGID_00000149354071737989573900000016021111844873196168_" gradientUnits="userSpaceOnUse" x1="-283.8196" y1="2404.4292" x2="-319.8729" y2="2438.1018" gradientTransform="matrix(-1 0 0 1 1904.3329 0)">
					<stop  offset="0" style="stop-color:#24ABB5"/>
					<stop  offset="1" style="stop-color:#425F63"/>
				</linearGradient>
				<path style="fill:url(#SVGID_00000149354071737989573900000016021111844873196168_);" d="M2252.856,2424.351
					c0.378-3.568-7.443-7.417-10.38-8.611c-8.804-3.578-11.941,1.171-22.952-2.273c-4.175-1.306-7.01-3.017-12.585-3.231
					c-3.682-0.141-4.961,0.508-7.653,0.681c-9.568,0.613-12.935-6.34-21.428-7.993c-10.452-2.034-23.004,5.06-23.128,10.544
					c-0.115,5.096,10.493,9.164,17.073,11.622C2208.204,2438.689,2251.991,2432.52,2252.856,2424.351z"/>
				
					<linearGradient id="SVGID_00000028302437111614632580000007987179541727910069_" gradientUnits="userSpaceOnUse" x1="219.9344" y1="2668.1455" x2="233.7077" y2="2763.0281" gradientTransform="matrix(-0.9961 0.0886 0.0886 0.9961 2232.6179 -266.5931)">
					<stop  offset="0" style="stop-color:#FFC444"/>
					<stop  offset="0.9964" style="stop-color:#F36F56"/>
				</linearGradient>
				<path style="fill:url(#SVGID_00000028302437111614632580000007987179541727910069_);" d="M2333.959,2466.218
					c4.375-3.244,6.361-7.707,6.361-7.707c2.458-5.522,2.003-12.17-0.525-16.886c-4.143-7.73-13.658-9.903-18.94-11.032
					c-39.323-8.404-62.151-9.601-62.151-9.601c-32.764-1.719-44.825-2.173-62.373-1.05c-27.076,1.733-36.008,5.225-39.943,12.225
					c-3.47,6.173-3.23,15.387,0.894,21.872c10.322,16.228,37.052,2.889,87.907,8.469
					C2273.303,2465.592,2321.032,2475.802,2333.959,2466.218z"/>
				
					<linearGradient id="SVGID_00000173143753234466310770000017527011243123067281_" gradientUnits="userSpaceOnUse" x1="-382.02" y1="2410.4553" x2="-393.5842" y2="2445.488" gradientTransform="matrix(-1 0 0 1 1904.3329 0)">
					<stop  offset="0" style="stop-color:#24ABB5"/>
					<stop  offset="1" style="stop-color:#425F63"/>
				</linearGradient>
				<path style="fill:url(#SVGID_00000173143753234466310770000017527011243123067281_);" d="M2312.561,2417.09
					c4.606,2.469,5.467,3.888,9.136,6.278c7.573,4.934,10.744,3.349,13.27,7.302c1.66,2.598,2.417,6.611,0.681,8.843
					c-2.396,3.08-8.696,1.693-13.302,0.624c-12.48-2.896-14.096-7.547-26.311-11.829c-10.22-3.583-20.161-4.208-21.271-4.271
					c-7.679-0.435-10.125,0.624-15.475-1.02c-8.982-2.76-15.583-9.891-14.626-11.734c0.746-1.435,5.483,1.479,14.285,1.021
					c8.222-0.429,8.392-3.197,15.306-3.402c9.407-0.279,9.702,4.827,20.249,4.697c3.68-0.045,7.053-0.709,11.951,0.798
					C2308.947,2415.164,2310.926,2416.213,2312.561,2417.09z"/>
				<g style="opacity:0.3;">
					
						<linearGradient id="SVGID_00000040563536560569153300000013095608751956626604_" gradientUnits="userSpaceOnUse" x1="219.9069" y1="2668.1521" x2="233.6794" y2="2763.0303" gradientTransform="matrix(-0.9961 0.0886 0.0886 0.9961 2232.6179 -266.5931)">
						<stop  offset="0" style="stop-color:#FFC444"/>
						<stop  offset="0.9964" style="stop-color:#F36F56"/>
					</linearGradient>
					<path style="fill:url(#SVGID_00000040563536560569153300000013095608751956626604_);" d="M2170.902,2445.045
						c8.396-0.717,14.184-4.146,16.916-5.604c24.206-12.906,66.314-8.391,93.731,1.903c24.07,9.036,32.081,20.747,48.283,16.875
						c4.621-1.104,8.607-3.173,12.011-5.628c-0.194,2.023-0.685,4.037-1.523,5.92c0,0-1.986,4.463-6.361,7.707
						c-12.927,9.584-60.656-0.625-88.771-3.71c-50.855-5.58-77.585,7.759-87.907-8.469c-2.118-3.33-3.204-7.38-3.297-11.37
						C2158.946,2444.449,2164.677,2445.576,2170.902,2445.045z"/>
				</g>
			</g>
			
				<linearGradient id="SVGID_00000055691105793613831700000018223809165269076111_" gradientUnits="userSpaceOnUse" x1="-438.7208" y1="2318.8784" x2="-430.675" y2="2478.1824" gradientTransform="matrix(-1 0 0 1 1904.3329 0)">
				<stop  offset="0" style="stop-color:#AB316D"/>
				<stop  offset="1" style="stop-color:#792D3D"/>
			</linearGradient>
			<path style="fill:url(#SVGID_00000055691105793613831700000018223809165269076111_);" d="M2341.128,2491.864
				c2.64-4.9,5.556-11.684,7.008-20.089c4.969-28.77-10.833-55.622-14.95-54.66c-3.546,0.828,5.95,21.262-4.672,44.382
				c-3.503,7.624-7.915,12.757-6.541,20.089c1.399,7.464,7.933,12.608,13.548,15.884
				C2337.39,2495.602,2339.259,2493.733,2341.128,2491.864z"/>
			
				<linearGradient id="SVGID_00000159462506702478832220000001206515859615106208_" gradientUnits="userSpaceOnUse" x1="-254.4881" y1="2309.5737" x2="-246.4423" y2="2468.8777" gradientTransform="matrix(-1 0 0 1 1904.3329 0)">
				<stop  offset="0" style="stop-color:#AB316D"/>
				<stop  offset="1" style="stop-color:#792D3D"/>
			</linearGradient>
			<path style="fill:url(#SVGID_00000159462506702478832220000001206515859615106208_);" d="M2141.553,2476.699
				c-1.685-5.462-3.273-12.878-3.063-21.635c0.718-29.976,21.983-53.887,25.939-52.099c3.408,1.54-10.226,20.239-4.124,45.648
				c2.012,8.379,5.436,14.428,2.593,21.542c-2.895,7.242-10.501,11.125-16.811,13.308
				C2144.575,2481.209,2143.064,2478.954,2141.553,2476.699z"/>
			<g style="opacity:0.3;">
				
					<linearGradient id="SVGID_00000019635900185765621220000004840465978115798672_" gradientUnits="userSpaceOnUse" x1="-399.3553" y1="2445.292" x2="-448.7987" y2="2770.8955" gradientTransform="matrix(-1 0 0 1 1904.3329 0)">
					<stop  offset="0" style="stop-color:#AA80F9"/>
					<stop  offset="0.9964" style="stop-color:#6165D7"/>
				</linearGradient>
				<path style="fill:url(#SVGID_00000019635900185765621220000004840465978115798672_);" d="M2241.452,2582.553
					c77.247-55.692,85.357-125.028,131.95-123.903c52.433,1.267,72.446,89.81,117.466,86.893
					c24.911-1.614,78.74-80.158,112.124-141.445c32.504,41.599,48.413,80.553,56.482,100.807
					c33.904,85.104,28.979,154.658,23.311,249.351c-5.536,92.48-19.778,106.202-28.993,111.905
					c-33.854,20.956-71.746-21.796-150.432-42.027c-82.62-21.242-101.359,10.331-278,21.51
					c-175.945,11.135-204.747-17.191-214.819-30.171c-11.872-15.299-18.101-35.537-10.861-126.719
					c1.853-23.331,3.52-44.315,5.154-63.353c3.706,1.353,7.466,2.647,11.34,3.815
					C2127.125,2662.664,2227.191,2592.835,2241.452,2582.553z"/>
			</g>
			
				<linearGradient id="SVGID_00000008867677462408469310000008983871307722471562_" gradientUnits="userSpaceOnUse" x1="-239.4439" y1="2488.8069" x2="38.1305" y2="2652.9377" gradientTransform="matrix(-1 0 0 1 1904.3329 0)">
				<stop  offset="0" style="stop-color:#AA80F9"/>
				<stop  offset="0.9964" style="stop-color:#6165D7"/>
			</linearGradient>
			<path style="fill:url(#SVGID_00000008867677462408469310000008983871307722471562_);" d="M2162.879,2483.506
				c-9.639-3.266-19.277-6.533-28.916-9.799c-37.114,44.357-50.114,50.83-54.95,48.001c-12.908-7.55,16.164-90.861,29.609-129.389
				c9.58-27.455,12.596-32.364,10.626-33.739c-9.713-6.784-121.246,85.954-135.41,210.125
				c-4.881,42.799-1.118,114.945,32.354,127.284c34.168,12.596,82.234-43.421,91.164-53.828
				C2156.119,2585.333,2162.4,2517.044,2162.879,2483.506z"/>
			
				<linearGradient id="SVGID_00000066486894472246283720000009503131446436904348_" gradientUnits="userSpaceOnUse" x1="-490.6226" y1="2462.9353" x2="-827.3336" y2="2742.9243" gradientTransform="matrix(-1 0 0 1 1904.3329 0)">
				<stop  offset="0" style="stop-color:#AA80F9"/>
				<stop  offset="0.9964" style="stop-color:#6165D7"/>
			</linearGradient>
			<path style="fill:url(#SVGID_00000066486894472246283720000009503131446436904348_);" d="M2348.716,2487.649
				c-9.402,3.171-18.805,6.343-28.207,9.514c-5.495,17.345-23.455,81.218,8.125,145.668
				c38.951,79.495,134.757,122.085,221.299,102.649c67.496-15.158,124.526-66.96,143.659-129.695
				c46.62-152.859-153.455-299.468-176.528-285.266c-17.74,10.919,59.217,123.012,10.756,220.777
				c-12.556,25.33-24.969,32.429-32.359,35.24C2458.068,2600.767,2400.295,2561.934,2348.716,2487.649z"/>
		</g>
		<g>
			<g>
				
					<linearGradient id="SVGID_00000074409895762136661100000012184169634824619915_" gradientUnits="userSpaceOnUse" x1="509.7575" y1="1379.5649" x2="464.4034" y2="1452.9321" gradientTransform="matrix(-1 0 0 1 2191.9875 0)">
					<stop  offset="0" style="stop-color:#FFC444"/>
					<stop  offset="0.9964" style="stop-color:#F36F56"/>
				</linearGradient>
				<path style="fill:url(#SVGID_00000074409895762136661100000012184169634824619915_);" d="M1684.608,1454.433
					c-4.605-7.135-13.006-22.322-13.543-42.716c-1.044-39.628,28.348-70.536,32.298-68.762c2.129,0.957-0.571,12.567-2.084,17.713
					c-3.149,10.714-6.535,11.748-6.25,16.669c0.582,10.13,15.206,10.521,22.92,23.963c5.554,9.681,5.997,23.469,0,34.381
					C1707.995,1453.784,1685.555,1454.422,1684.608,1454.433z"/>
				
					<linearGradient id="SVGID_00000114768531181262744310000014789790032853956486_" gradientUnits="userSpaceOnUse" x1="1155.7747" y1="2247.9192" x2="1174.0892" y2="2285.5806" gradientTransform="matrix(-1 0 0 1 2191.9875 0)">
					<stop  offset="0" style="stop-color:#FFC444"/>
					<stop  offset="0.9964" style="stop-color:#F36F56"/>
				</linearGradient>
				<polygon style="fill:url(#SVGID_00000114768531181262744310000014789790032853956486_);" points="1056.771,2315.155 
					1068.069,2276.281 1020.905,2241.332 991.507,2230.339 1008.913,2284.732 				"/>
				
					<linearGradient id="SVGID_00000047038283134432998770000002867815684076144556_" gradientUnits="userSpaceOnUse" x1="-140.4158" y1="3206.981" x2="-140.4158" y2="3088.8308" gradientTransform="matrix(-1 0 0 1 942.4245 0)">
					<stop  offset="0" style="stop-color:#FFC444"/>
					<stop  offset="0.9964" style="stop-color:#F36F56"/>
				</linearGradient>
				<path style="fill:url(#SVGID_00000047038283134432998770000002867815684076144556_);" d="M1115.154,3098.095
					c0,0-25.797,64.897-19.009,93.68c-27.697-0.544-45.618-4.073-45.618-4.073s11.133-29.598,13.305-44.26
					c2.935-19.81,2.715-51.864,2.715-51.864L1115.154,3098.095z"/>
				<path style="fill:#26264F;" d="M1399.519,3249.884c-1.669,2.013-4.628,6.221-4.876,11.923c-0.135,3.097,0.572,5.645,1.463,7.987
					c4.398,11.575,11.307,13.102,18.762,25.384c4.554,7.504,3.694,9.767,7.868,13.154c5.501,4.465,12.153,4.721,17.921,4.787
					c9.746,0.113,23.777-0.236,41.443-2.342c-9.259-11.932-19.104-24.054-29.575-36.292c-4.592-5.366-9.177-10.608-13.748-15.725
					l-27.221-9.198C1407.544,3249.668,1403.531,3249.776,1399.519,3249.884z"/>
				
					<linearGradient id="SVGID_00000113310758164084887670000011032803498623203482_" gradientUnits="userSpaceOnUse" x1="-500.5376" y1="3240.6521" x2="-500.5376" y2="3098.2625" gradientTransform="matrix(-1 0 0 1 942.4245 0)">
					<stop  offset="0" style="stop-color:#FFC444"/>
					<stop  offset="0.9964" style="stop-color:#F36F56"/>
				</linearGradient>
				<path style="fill:url(#SVGID_00000113310758164084887670000011032803498623203482_);" d="M1422.155,3117.726
					c0,0,15.56,81.185-4.24,103.918c-16.865,22.732,8.146,6.516,8.146,6.516l29.87,26.068l17.92,30.956
					c0,0-16.497-79.46-12.097-110.992c4.399-31.532,6.599-52.798,6.599-52.798L1422.155,3117.726z"/>
				
					<linearGradient id="SVGID_00000048471745267765319870000012655360813891058095_" gradientUnits="userSpaceOnUse" x1="-580.1956" y1="2681.3232" x2="-114.347" y2="2681.3232" gradientTransform="matrix(-1 0 0 1 942.4245 0)">
					<stop  offset="0" style="stop-color:#311944"/>
					<stop  offset="1" style="stop-color:#893976"/>
				</linearGradient>
				<path style="fill:url(#SVGID_00000048471745267765319870000012655360813891058095_);" d="M1480.82,2229.684
					c0,0,41.8,37.399,41.8,191.394c0,153.996-19.801,488.387-19.801,488.387l-31.683,239.407c0,0-32.851,1.169-54.85-5.43
					c-19.799-90.198-52.063-242.776-36.662-370.373c6.599-138.597-54.999-312.392-54.999-312.392s-52.799,175.996-90.198,263.994
					c-37.399,87.996-108.602,363.671-115.201,383.472c-43.763,3.966-62.455-7.605-62.455-7.605s28.06-296.67,54.458-408.867
					c26.401-112.197,24.201-382.789,68.2-459.787C1278.426,2192.284,1480.82,2229.684,1480.82,2229.684z"/>
				
					<linearGradient id="SVGID_00000083072801525240609130000016306332233526883996_" gradientUnits="userSpaceOnUse" x1="-595.0005" y1="2334.0591" x2="-259.3829" y2="2897.7673" gradientTransform="matrix(-1 0 0 1 942.4245 0)">
					<stop  offset="0" style="stop-color:#311944"/>
					<stop  offset="1" style="stop-color:#893976"/>
				</linearGradient>
				<path style="fill:url(#SVGID_00000083072801525240609130000016306332233526883996_);" d="M1480.819,2229.684
					c0,0,41.801,37.399,41.801,191.394c0,153.996-19.801,488.387-19.801,488.387l-31.683,239.407c0,0-32.851,1.169-54.85-5.43
					c-19.8-90.198-52.063-242.776-36.664-370.373c6.599-138.597-54.997-312.392-54.997-312.392s-52.799,175.996-90.198,263.994
					c-37.399,87.996-108.603,363.672-115.202,383.472c-43.761,3.966-62.453-7.605-62.453-7.605s28.061-296.67,54.458-408.867
					c26.401-112.197,24.201-382.789,68.199-459.788C1278.425,2192.284,1480.819,2229.684,1480.819,2229.684z"/>
				
					<linearGradient id="SVGID_00000127764989729209213620000018010963900841201329_" gradientUnits="userSpaceOnUse" x1="-462.8769" y1="2255.396" x2="-127.2593" y2="2819.1042" gradientTransform="matrix(-1 0 0 1 942.4245 0)">
					<stop  offset="0" style="stop-color:#311944"/>
					<stop  offset="1" style="stop-color:#893976"/>
				</linearGradient>
				<path style="opacity:0.25;fill:url(#SVGID_00000127764989729209213620000018010963900841201329_);" d="M1263.683,2511.848
					c-13.033,84.719-39.1,130.338-104.27,188.99c-52.134,39.101-13.034,123.821-32.584,188.989
					c-6.517,19.55-26.068,39.1-32.585,58.651c-24.25,48.502-1.6,107.828-12.596,159.182c-17.111-2.363-24.876-7.123-24.876-7.123
					s28.061-296.67,54.458-408.867c26.401-112.197,24.201-382.79,68.199-459.788c98.997-39.598,301.391-2.199,301.391-2.199
					s41.801,37.399,41.801,191.394c0,12.496-0.133,26.192-0.373,40.787c-43.394,38.404-132.145,46.937-186.879,4.367
					c-3.307-2.48-6.826-4-10.46-4.739c-0.168-0.487-0.284-0.815-0.284-0.815s-0.091,0.304-0.23,0.762
					C1299.484,2456.894,1269.334,2489.242,1263.683,2511.848z"/>
				<g>
					<path style="fill:#26264F;" d="M1102.931,3216.403c0,0,6.429,0,5.895,8.305c-0.538,8.303,2.894,36.871-29.787,38.21
						c-32.682,1.339-37.722-2.313-38.794-2.313c-1.071,0,8.573-27.326,8.573-27.326l10.449-13.393l28.128-2.947L1102.931,3216.403z"
						/>
					<path style="fill:#444B8C;" d="M1030.465,3245.077c0.697-6.898,4.557-17.757,8.44-26.495
						c5.77-12.982,1.033-17.839,6.548-29.663c1.907-4.089,3.76-7.966,7.788-11.807c0.928-0.883,9.945-9.217,23.078-8.793
						c2.585,0.084,6.564,0.257,10.865,2.549c5.068,2.701,7.606,6.757,9.775,10.319c3.407,5.597,2.625,7.314,7.874,23.352
						c0.422,1.287,1.346,4.085,2.057,7.948c0.545,2.955,0.764,5.436,0.861,7.132c-8.573,0-41.523,1.34-48.486,6.43
						c-6.966,5.09-10.449,13.663-10.449,22.236c0,8.572-4.286,12.589-8.573,12.323
						C1036.415,3260.364,1028.808,3253.273,1030.465,3245.077z"/>
				</g>
				<path style="fill:#444B8C;" d="M1426.333,3210.239c-7.362,0.115-12.763,5.974-16.835,20.093
					c-4.074,14.121-23.624,26.612-0.817,23.625c22.81-2.987,39.375,29.324,47.52,41.274c8.147,11.947,30.014,22.562,29.471,10.886
					c-0.542-11.676-10.191-17.132-12.906-29.079C1470.05,3265.089,1443.125,3209.976,1426.333,3210.239z"/>
				
					<linearGradient id="SVGID_00000007389639635535285340000013625075287677858690_" gradientUnits="userSpaceOnUse" x1="1295.262" y1="-3386.7485" x2="1650.6997" y2="-2655.8479" gradientTransform="matrix(0.9906 -0.1367 -0.1367 -0.9906 -599.3328 -1269.0822)">
					<stop  offset="0" style="stop-color:#AA80F9"/>
					<stop  offset="0.9964" style="stop-color:#6165D7"/>
				</linearGradient>
				<path style="fill:url(#SVGID_00000007389639635535285340000013625075287677858690_);" d="M1039.463,2248.271
					c-5.413-15.049-39.194-113.899,15.405-204.049c44.696-73.799,122.038-97.876,133.065-101.133
					c67.131-19.825,100.776,5.644,121.957-17.796c35.942-39.777-4.772-175.266-83.527-202.405
					c-88.772-30.591-195.267,87.039-238.424,164.301c-56.616,101.364-42.681,202.108-39.405,222.857
					c8.513,53.917,28.306,95.044,42.973,120.294C1007.492,2236.316,1023.477,2242.294,1039.463,2248.271z"/>
				
					<linearGradient id="SVGID_00000159460614275715737340000013604743070737918137_" gradientUnits="userSpaceOnUse" x1="716.1913" y1="1728.5568" x2="1076.1716" y2="2468.7988" gradientTransform="matrix(-1 0 0 1 2191.9875 0)">
					<stop  offset="0" style="stop-color:#AA80F9"/>
					<stop  offset="0.9964" style="stop-color:#6165D7"/>
				</linearGradient>
				<path style="fill:url(#SVGID_00000159460614275715737340000013604743070737918137_);" d="M1271.285,1703.76
					c79.24-3.169,140.35-1.913,174.87,32.583c36.461,36.437-0.385,77.572,7.531,172.882c12.12,145.918,105.104,181.57,112.1,329.606
					c2.359,49.879-6.082,90.648-12.637,115.2c-20.407,25.414-53.808,61.279-103.101,91.269
					c-71.73,43.641-113.327,36.032-216.342,64.225c-168.503,46.116-183.495,101.036-267.048,87.044
					c-84.443-14.141-158.529-85.204-149.581-124.227c5.36-23.37,39.401-16.75,78.593-52.396
					c50.513-45.939,31.032-89.791,69.436-139.157c55.162-70.908,132.012-27.561,179.02-89.016
					c47.55-62.166,28.69-184.666-11.393-251.439c-26.18-43.613-37.391-94.722-59.669-140.451c-1.851-3.799-4-10.029-3.053-17.818
					c3.615-29.782,53.261-45.936,90.861-57.788C1218.221,1706.202,1264.768,1704.019,1271.285,1703.76z"/>
				
					<linearGradient id="SVGID_00000170976663797980122890000012863437573588771248_" gradientUnits="userSpaceOnUse" x1="-376.5941" y1="1635.9364" x2="-307.8001" y2="1745.2798" gradientTransform="matrix(-1 0 0 1 942.4245 0)">
					<stop  offset="0.0036" style="stop-color:#E38DDD"/>
					<stop  offset="1" style="stop-color:#9571F6"/>
				</linearGradient>
				<path style="fill:url(#SVGID_00000170976663797980122890000012863437573588771248_);" d="M1338.03,1700.483l-15.628-4.809
					c0,0-4.087,21.159-54.338,23.803c-27.89,0-45.922-15.628-45.922-15.628l-10.678,7.785c0,0,23.427,29.266,60.687,28.52
					C1320.238,1739.193,1338.03,1700.483,1338.03,1700.483z"/>
				<g>
					
						<linearGradient id="SVGID_00000173153235725694716930000006739059985947887759_" gradientUnits="userSpaceOnUse" x1="-293.542" y1="1619.1617" x2="-369.1464" y2="1741.4629" gradientTransform="matrix(-1 0 0 1 942.4245 0)">
						<stop  offset="0" style="stop-color:#FFC444"/>
						<stop  offset="0.9964" style="stop-color:#F36F56"/>
					</linearGradient>
					<path style="fill:url(#SVGID_00000173153235725694716930000006739059985947887759_);" d="M1306.207,1636.12
						c-3.011-23.239-21.382-38.127-25.391-41.315c-16.783-13.34-20.2-14.683-25.965-15.778l-7.872-1.194c0,0-0.424,0.011-0.86,0.037
						c-4.609,0.279-18.42,5.67-20.932,7.435c-8.022,5.642-2.115,45.595,22.204,95.285c0.957,4.208,1.913,8.416,2.87,12.622
						c-21.198,3.726-26.447,7.55-26.614,10.603c-0.362,6.614,22.846,15.052,44.356,15.601c26.974,0.688,55.614-10.917,55.065-19.578
						c-0.222-3.506-5.309-7.831-24.895-12.077c-3.062-4.303-6.121-8.607-9.182-12.91
						C1291.771,1671.484,1308.425,1653.24,1306.207,1636.12z"/>
					
						<linearGradient id="SVGID_00000120548278332658755120000002802594016241452930_" gradientUnits="userSpaceOnUse" x1="-815.9023" y1="791.9026" x2="-889.0648" y2="910.2536" gradientTransform="matrix(-0.9717 -0.2361 -0.2361 0.9717 657.2125 640.4756)">
						<stop  offset="0" style="stop-color:#FFC444"/>
						<stop  offset="0.9964" style="stop-color:#F36F56"/>
					</linearGradient>
					<path style="fill:url(#SVGID_00000120548278332658755120000002802594016241452930_);" d="M1272.864,1627.371
						c-6.118-3.662-10.778,4.209-7.896,11.088c2.881,6.878,12.565,11.183,18.439,7.08
						C1289.28,1641.44,1281.096,1632.297,1272.864,1627.371z"/>
					
						<linearGradient id="SVGID_00000114069719451927213510000015619721614243799979_" gradientUnits="userSpaceOnUse" x1="906.785" y1="1096.7828" x2="1540.407" y2="2103.8811" gradientTransform="matrix(-1 0 0 1 2191.9875 0)">
						<stop  offset="0" style="stop-color:#444B8C"/>
						<stop  offset="0.9964" style="stop-color:#26264F"/>
					</linearGradient>
					<path style="fill:url(#SVGID_00000114069719451927213510000015619721614243799979_);" d="M479.889,1627.254
						c80.531-87.388,267.907-63.423,371.838,6.761c48.294,32.613,73.08,71.134,130.143,74.367
						c43.38,2.458,112.391-13.853,148.735-60.846c4.579-5.921,22.893-30.75,50.392-62.063
						c12.124-13.803,24.181-26.757,42.869-29.687c4.748-0.744,20.543-3.314,30.984,6.886c8.462,8.265,10.537,22.636,8.035,32.994
						c-1.497,6.194-3.433,6.846-3.157,10.902c0.775,11.392,21.525,16.354,20.37,22.092c-0.824,4.1-11.624,2.6-13.485,7.745
						c-2.037,5.64,9.823,10.492,14.919,24.674c9.547,6.391,15.579,22.296,17.666,43.577c3.068,31.284-0.075,56.704-6.003,75.848
						c-28.54,92.176-48.957,158.107-98.365,194.925c-65.413,48.745-124.314,3.739-290.71-3.38
						c-227.845-9.747-284.654,67.484-366.544,14.65C435.327,1920.729,396.277,1717.983,479.889,1627.254z"/>
				</g>
				
					<linearGradient id="SVGID_00000178923687907587689260000017314645548997210258_" gradientUnits="userSpaceOnUse" x1="676.1292" y1="1745.8143" x2="1030.1803" y2="2473.8635" gradientTransform="matrix(-1 0 0 1 2191.9875 0)">
					<stop  offset="0" style="stop-color:#AA80F9"/>
					<stop  offset="0.9964" style="stop-color:#6165D7"/>
				</linearGradient>
				<path style="fill:url(#SVGID_00000178923687907587689260000017314645548997210258_);" d="M1674.981,1448.883
					c2.031,19.064,8.904,103.398-49.267,174.606c-54.356,66.536-131.334,79.826-145.642,81.989
					c-69.212,10.458-99.06-19.371-123.246,0.954c-41.043,34.49-19.235,174.273,55.068,211.925
					c83.755,42.443,205.335-59.522,258.648-130.159c69.946-92.671,69.916-194.373,69.507-215.375
					c-1.06-54.575-15.044-98.022-26.12-125.04c-4.549-1.37-11.475-2.885-19.966-2.59
					C1685.871,1445.474,1679.34,1447.295,1674.981,1448.883z"/>
				
					<linearGradient id="SVGID_00000076561635573775974950000017714039664587716510_" gradientUnits="userSpaceOnUse" x1="664.204" y1="1753.8398" x2="1024.1835" y2="2494.0798" gradientTransform="matrix(-1 0 0 1 2191.9875 0)">
					<stop  offset="0" style="stop-color:#FF9085"/>
					<stop  offset="1" style="stop-color:#FB6FBB"/>
				</linearGradient>
				<path style="opacity:0.25;fill:url(#SVGID_00000076561635573775974950000017714039664587716510_);" d="M964.124,2540.792
					c20.262-20.772-2.043-62.662,27.887-93.804c27.777-28.904,59.227-5.553,103.945-30.423
					c57.357-31.899,41.552-90.297,96.341-121.693c39.398-22.578,57.912,1.696,119.158-10.141
					c61.142-11.817,135.611-53.969,172.397-129.299c15.631-32.008,21.392-63.827,22.157-92.271
					c27.499,49.129,56.022,96.212,59.778,175.668c2.359,49.879-6.082,90.648-12.637,115.199
					c-20.407,25.414-53.808,61.28-103.101,91.268c-71.73,43.641-113.327,36.033-216.342,64.227
					c-168.503,46.116-183.495,101.036-267.048,87.044c-53.969-9.037-103.589-41.323-130.124-73.638
					C914.409,2557.597,949.419,2555.87,964.124,2540.792z"/>
			</g>
		</g>
	</g>
</g>
</svg>
